<?xml version="1.0" encoding="UTF-8" standalone="no"?><!DOCTYPE svg PUBLIC "-//W3C//DTD SVG 1.1//EN" "http://www.w3.org/Graphics/SVG/1.1/DTD/svg11.dtd"><svg width="100%" height="100%" viewBox="0 0 2296 85" version="1.1" xmlns="http://www.w3.org/2000/svg" xmlns:xlink="http://www.w3.org/1999/xlink" xml:space="preserve" style="fill-rule:evenodd;clip-rule:evenodd;stroke-linejoin:round;stroke-miterlimit:1.41421;"><g><g><g><g><path d="M-25.285,67.986c176.072,-0.194 463.687,-4.952 661.474,-30.586c303.184,-39.374 514.184,-37.383 514.184,-37.383l0,85.933l-1175.15,0c0,0 -94.233,-17.866 -0.512,-17.964Z" style="fill:#65aefd;"/><path d="M-25.49,67.986c176.072,-0.194 463.79,-4.952 661.679,-30.586c303.184,-39.374 514.184,-37.383 514.184,-37.383" style="fill:none;"/></g><g><path d="M2325.01,67.986c-176.073,-0.194 -463.688,-4.952 -661.475,-30.586c-303.184,-39.374 -514.184,-37.383 -514.184,-37.383l0,85.933l1175.15,0c0,0 94.233,-17.866 0.513,-17.964Z" style="fill:#65aefd;"/><path d="M2325.21,67.986c-176.072,-0.194 -463.789,-4.952 -661.679,-30.586c-303.184,-39.374 -514.184,-37.383 -514.184,-37.383" style="fill:none;"/></g></g></g></g></svg>